<svg width="224" height="85" viewBox="0 0 224 85" fill="none" xmlns="http://www.w3.org/2000/svg">
<g clip-path="url(#clip0_4_739)">
<path d="M32.3842 53.2644H46.9043C47.6083 53.2644 48.3123 53.2644 48.8403 53.0007C49.4563 52.737 51.4803 49.4849 52.2724 49.4849C53.0644 49.4849 60.0164 54.0554 60.0164 54.9344C60.0164 55.5496 56.8484 56.9559 56.3204 57.3954C55.1764 58.1865 50.5123 63.1965 49.4563 64.2512C48.6643 65.0423 48.0483 65.5697 48.0483 65.8334C48.0483 67.1518 62.7444 70.5797 71.3685 70.5797C72.3365 70.5797 77.3525 69.9644 77.7045 69.9644C77.7925 69.9644 78.1445 69.8765 78.1445 70.0523C78.1445 70.1402 78.0565 70.316 77.8805 70.4918C75.1525 72.9528 73.7445 74.2713 73.0405 76.1171C72.1605 78.4023 72.0725 78.666 70.6645 78.666C65.2964 78.666 51.7443 74.7986 44.7043 70.5797C43.5603 69.8765 43.2083 69.7886 42.7683 69.7886C42.2403 69.7886 40.8323 70.4918 39.8643 71.0192C38.3683 71.7223 24.3762 78.5781 2.72802 78.5781C0.264002 78.5781 0 78.5781 0 78.0508C0 77.875 0.176001 77.7871 0.352002 77.6992C1.23201 77.5234 5.54404 76.9081 6.51204 76.7323C21.9121 74.2713 37.1362 67.5913 37.1362 66.097C37.1362 65.7455 37.0482 65.6576 36.1682 64.9544C32.6482 62.1418 30.4482 59.5049 29.1282 57.747C27.8962 56.2528 27.8082 56.077 27.1922 56.077C26.5762 56.077 22.6162 58.7138 21.7361 59.2412C16.8961 62.0539 8.18405 65.1302 3.96003 65.1302C3.78403 65.1302 3.43202 65.0423 3.43202 64.8665C3.43202 64.6028 9.06406 62.0539 10.1201 61.5265C21.0321 55.7254 27.5442 48.6059 27.5442 46.057C27.5442 45.0901 27.2802 45.0901 24.7282 45.0901C23.8482 45.0901 23.2322 45.5296 23.0562 46.2328C22.7922 47.6391 22.1761 49.2212 18.8321 49.2212C15.8401 49.2212 15.8401 47.9907 15.8401 46.9359C15.8401 44.2112 16.1041 30.8511 16.1041 27.8627C16.1041 22.4132 16.0161 20.3916 15.7521 17.0516C15.6641 16.5242 15.3121 14.0632 15.3121 13.5358C15.3121 13.0084 15.4001 12.9205 15.9281 12.9205C16.7201 12.9205 22.0001 15.1179 23.2322 15.4695C23.5842 15.6453 24.8162 15.909 25.6082 15.909H28.9522C29.9202 15.909 30.5362 15.909 30.8882 14.4147C31.0642 13.6237 31.9442 9.58056 31.9442 9.22898C31.9442 8.26213 31.0642 8.26213 30.6242 8.26213H16.0161C13.9041 8.26213 8.00805 8.26213 4.92803 8.52582C4.66403 8.52582 3.34402 8.70161 3.08002 8.70161C2.72802 8.70161 2.55202 8.43792 2.28802 8.17424L0.528004 6.15265C0.264002 5.88897 0.176001 5.62528 0.176001 5.53739C0.176001 5.3616 0.352002 5.2737 0.528004 5.2737C1.05601 5.2737 3.69602 5.62528 4.31203 5.62528C6.86405 5.71318 13.5521 5.88897 16.4561 5.88897H58.7844C60.8084 5.88897 62.3924 5.88897 63.0084 5.62528C64.0644 5.09791 67.6725 -1.90735e-06 68.9045 -1.90735e-06C69.7845 -1.90735e-06 74.7125 3.6037 75.9445 4.57054C77.9685 6.06476 78.1445 6.24055 78.1445 6.94371C78.1445 8.26213 76.5605 8.26213 73.4805 8.26213H43.0323C41.7123 8.26213 40.3043 8.43792 38.9843 9.75635C38.0163 10.8111 34.6722 14.239 34.6722 15.2058C34.6722 15.909 35.3762 15.909 36.2562 15.909H52.3604C52.9764 15.909 53.5044 15.8211 53.8564 15.6453C54.2964 15.4695 56.1444 13.8874 56.5844 13.8874C57.1124 13.8874 63.8004 17.4032 63.8004 18.5458C63.8004 18.9853 61.8644 20.2158 61.6004 20.6553C61.4244 21.0948 61.2484 33.3122 61.2484 34.9822C61.2484 35.6853 61.4244 42.8927 61.4244 43.3322C61.4244 47.0238 59.0484 48.518 56.8484 48.518C54.5604 48.518 54.4724 47.9907 54.2964 46.5843C54.0324 45.0901 52.8884 45.0901 51.9203 45.0901H34.3202C34.0562 45.0901 33.3522 45.0901 33.3522 45.7054C33.3522 46.057 33.4402 46.057 34.3202 46.4964C36.4322 47.5512 37.1362 47.9028 37.1362 48.9575C37.1362 49.7486 36.8722 49.8365 34.4962 50.3638C33.0882 50.6275 31.4162 51.9459 31.4162 52.6491C31.4162 53.2644 32.0322 53.2644 32.3842 53.2644ZM52.5364 27.2474H25.0802C22.8802 27.2474 22.8802 27.9506 22.7922 31.9938C22.7922 33.6638 24.7282 33.6638 25.1682 33.6638H52.5364C54.7364 33.6638 54.7364 32.7848 54.7364 29.4448C54.7364 28.5659 54.6484 27.2474 52.5364 27.2474ZM52.5364 18.1942H25.2562C22.8802 18.1942 22.8802 19.1611 22.8802 21.5342C22.8802 23.9953 22.8802 24.8743 25.2562 24.8743H52.5364C54.7364 24.8743 54.7364 23.9074 54.7364 21.5342C54.7364 19.1611 54.7364 18.1942 52.5364 18.1942ZM52.0964 36.0369H25.3442C22.9682 36.0369 22.9682 36.7401 22.9682 40.9591C22.9682 42.4533 24.1122 42.8048 25.3442 42.8048H51.9203C54.4724 42.8048 54.4724 41.838 54.4724 37.9706C54.4724 36.828 53.9444 36.0369 52.0964 36.0369ZM46.1123 55.6375H32.5602C32.2082 55.6375 31.3282 55.6375 31.3282 56.4286C31.3282 58.0107 39.5123 63.1086 40.9203 63.1086C43.1203 63.1086 47.6963 57.0438 47.6963 56.5165C47.6963 55.6375 46.7283 55.6375 46.1123 55.6375Z" fill="#F8F8F5"/>
<path d="M96.8997 54.2753C96.3496 54.2753 96.3221 54.495 96.3221 54.6598C96.3221 54.7422 96.3771 54.8521 96.3771 54.9619C96.4871 55.8409 96.6521 56.7198 96.6521 57.9284C96.6521 59.7687 96.2396 62.3231 93.8196 65.9763C91.6196 69.3273 90.2171 69.9865 89.1171 69.9865C87.3021 69.9865 85.6796 67.1574 85.6796 63.8064C85.6796 62.3506 85.9821 59.5764 88.7321 56.8022C92.2246 53.2315 95.9096 53.2315 97.5047 53.2315C100.007 53.2315 101.162 53.7259 101.932 54.1104C104.902 55.5662 106.717 58.5052 106.717 62.1034C106.717 65.6741 104.655 70.0689 99.7872 71.7719C97.4496 72.5959 95.6346 72.7881 95.2221 72.7881C95.1121 72.7881 94.9471 72.7607 94.9471 72.5959C94.9471 72.5135 95.0021 72.486 95.6896 72.2113C98.5497 71.0852 104.517 68.723 104.517 61.8837C104.517 60.8124 104.407 54.2753 96.8997 54.2753ZM95.3596 54.3577C92.7471 54.3577 87.3846 57.9009 87.3846 63.0922C87.3846 64.8776 88.0996 67.3222 89.7771 67.3222C90.5746 67.3222 91.2346 66.9926 93.1321 64.136C94.5896 61.9111 95.8271 58.8623 95.8271 56.143C95.8271 54.495 95.7171 54.3577 95.3596 54.3577Z" fill="#F8F8F5"/>
<path d="M148.941 33.5925H141.945C141.021 33.5925 140.845 34.4275 140.845 34.823C140.845 35.9217 141.021 41.1075 141.021 42.2941C141.021 44.1838 140.933 45.4143 139.921 46.513C138.953 47.6117 137.281 48.0512 136.533 48.0512C136.181 48.0512 136.049 47.9193 135.829 47.5678C135.257 46.4691 134.553 45.4143 133.541 44.887C133.365 44.7551 132.309 44.1838 132.309 44.0959C132.309 43.8762 132.573 43.8762 132.705 43.8322C132.925 43.8322 134.157 43.8762 134.421 43.8762C137.941 43.8762 138.029 43.8322 138.029 42.4259V34.823C138.029 34.1638 137.633 33.5925 136.753 33.5925H134.025C133.013 33.5925 130.021 33.5924 128.481 33.6803C128.349 33.7243 127.689 33.8122 127.557 33.8122C127.425 33.8122 127.337 33.7243 127.161 33.5046L126.325 32.4938C126.149 32.274 126.149 32.274 126.149 32.2301C126.149 32.1422 126.237 32.0982 126.281 32.0982C126.545 32.0982 127.909 32.274 128.217 32.274C129.493 32.318 131.781 32.4059 134.245 32.4059H136.753C137.897 32.4059 137.941 31.3511 137.941 31.2632C137.941 30.4282 137.809 28.5385 137.721 27.7035C137.677 27.4837 137.325 26.3411 137.325 26.0774C137.325 25.6819 137.589 25.6379 137.897 25.6379C138.205 25.6379 139.657 25.9016 139.789 25.9016C140.185 25.9016 140.361 25.6379 140.449 25.5061C141.901 23.3087 142.737 21.5948 142.737 21.419C142.737 21.0674 142.473 20.8477 142.077 20.8477H138.469C137.413 20.8477 134.421 20.8477 132.925 20.9795C132.793 20.9795 132.133 21.0674 131.957 21.0674C131.825 21.0674 131.737 20.9795 131.605 20.8037L130.725 19.7929C130.549 19.5732 130.549 19.5732 130.549 19.4853C130.549 19.3974 130.637 19.3974 130.725 19.3974C130.989 19.3974 132.309 19.5292 132.617 19.5292C133.893 19.5732 136.181 19.705 138.689 19.705H142.429C143.441 19.705 143.793 19.0898 143.837 19.0019C144.365 18.035 144.453 17.9471 144.849 17.9471C145.157 17.9471 145.333 18.1229 147.005 19.5732C148.501 20.9356 148.721 21.0674 148.721 21.4629C148.721 22.3419 147.929 22.3419 146.389 22.3419C146.213 22.3419 146.081 22.3419 145.905 22.4298C145.861 22.4298 143.793 24.0998 143.485 24.3195C143.177 24.5832 141.197 26.1214 141.197 26.2972C141.197 26.429 141.285 26.4729 141.373 26.5169C141.637 26.6048 141.901 26.8685 141.901 27.1322C141.901 27.4837 141.681 27.6595 141.153 28.099C140.845 28.3627 140.669 28.5385 140.669 29.1977C140.669 31.6588 140.669 32.4059 141.901 32.4059H143.397C144.365 32.4059 144.893 32.4059 145.421 31.9224C145.729 31.6588 147.049 29.7251 147.533 29.7251C148.193 29.7251 151.317 32.318 151.317 33.0211C151.317 33.5924 150.349 33.5925 148.941 33.5925ZM125.357 15.1784H119.989C116.161 15.1784 114.885 15.2663 114.445 15.2663C114.313 15.3103 113.653 15.3982 113.521 15.3982C113.345 15.3982 113.301 15.2663 113.125 15.0905L112.289 14.0797C112.113 13.904 112.113 13.86 112.113 13.8161C112.113 13.7282 112.157 13.6842 112.245 13.6842C112.553 13.6842 113.917 13.8161 114.181 13.86C116.337 13.9479 118.141 13.9919 120.209 13.9919H125.885C126.237 13.9919 126.941 13.9919 127.293 13.1569C128.129 11.0474 128.129 9.81684 128.129 9.15763C128.129 8.01499 128.129 7.88315 128.437 7.88315C128.481 7.88315 132.221 9.50921 132.617 9.72894C132.881 9.81684 133.321 9.99263 133.321 10.5639C133.321 11.1792 132.661 11.3111 132.221 11.3989C131.517 11.5308 131.385 11.7945 130.813 13.025C130.637 13.4205 130.593 13.4645 130.593 13.5524C130.593 13.86 130.813 13.9919 131.165 13.9919H142.825C144.849 13.9919 145.113 13.9919 145.685 13.1569C146.785 11.4868 146.917 11.3111 147.313 11.3111C147.621 11.3111 151.361 13.9479 151.361 14.5192C151.361 15.1784 150.481 15.1784 148.985 15.1784H131.033C129.845 15.1784 129.493 15.8376 129.317 16.2332C127.601 19.7929 125.621 22.4737 123.465 25.3743C123.289 25.594 123.245 25.6379 123.245 25.8137C123.245 26.0774 123.377 26.1214 123.553 26.2093C124.257 26.6048 124.521 26.7366 124.521 27.0443C124.521 27.3958 124.389 27.4837 123.597 28.0111C123.245 28.2748 123.113 28.3627 123.113 28.978C123.113 29.9448 123.245 34.2517 123.245 35.1306C123.289 36.8885 123.465 45.2825 123.465 46.2933C123.465 47.8314 121.485 48.0512 121.353 48.0512C120.605 48.0512 120.209 47.6117 120.209 46.9085C120.209 46.7767 120.385 43.4367 120.385 43.0851C120.473 41.1075 120.473 38.8662 120.473 37.6356C120.473 34.5153 120.385 30.4722 120.341 30.1206C120.341 29.9888 120.297 29.769 120.077 29.769C119.989 29.769 119.901 29.9009 118.977 30.8677C115.941 34.1198 112.289 36.449 112.245 36.449C112.201 36.449 112.157 36.4051 112.157 36.3611C112.157 36.3172 113.741 34.5593 113.961 34.3396C115.941 32.2301 119.989 26.8685 119.989 26.0335C119.989 25.1985 119.989 25.0227 120.341 25.0227C120.957 25.0227 121.001 24.9348 121.397 24.3195C122.321 22.8253 126.061 16.8484 126.061 15.8816C126.061 15.7937 126.017 15.1784 125.357 15.1784Z" fill="#F8F8F5"/>
<path d="M178.163 28.3462H167.245C166.2 28.3462 166.09 28.511 165.21 30.159C164.33 31.8345 163.863 32.686 162.708 34.3066C162.653 34.389 162.625 34.4439 162.625 34.4989C162.625 34.6362 162.68 34.6911 162.79 34.7461C163.148 34.9658 163.285 35.0207 163.285 35.213C163.285 35.3504 162.818 35.7349 162.763 35.8448C162.625 36.2018 162.625 40.0472 162.625 40.7614C162.625 42.0798 162.68 43.7553 162.763 44.8265C162.79 45.0188 162.818 45.3209 162.818 45.5956C162.818 46.3922 162.13 46.7767 161.415 46.7767C161.003 46.7767 160.755 46.557 160.755 46.145C160.755 45.9802 160.838 45.0737 160.838 44.7991C160.893 43.8652 160.893 41.3382 160.893 40.267C160.893 37.3555 160.838 37.2181 160.508 37.2181C160.343 37.2181 160.233 37.328 160.15 37.4379C159.738 37.9597 156.355 40.9262 155.778 40.9262C155.695 40.9262 155.668 40.8987 155.668 40.8438C155.915 40.5966 156.465 39.9648 156.85 39.5528C157.868 38.4267 160.59 35.3504 160.59 34.6087C160.59 34.0594 160.59 33.977 160.81 33.977C161.113 33.977 161.168 33.977 161.278 33.8122C162.213 32.3564 163.753 29.39 163.753 28.8681C163.753 28.4011 163.423 28.3462 162.928 28.3462H160.948C158.528 28.3462 157.73 28.3737 157.455 28.4011C157.373 28.4286 156.96 28.4835 156.878 28.4835C156.795 28.4835 156.713 28.4011 156.63 28.2913L156.108 27.6595C156.053 27.6046 155.998 27.5222 155.998 27.4947C155.998 27.4398 156.025 27.4123 156.08 27.4123C156.273 27.4123 157.125 27.4947 157.29 27.5222C158.638 27.5771 159.793 27.6046 161.085 27.6046H163.12C163.945 27.6046 164.33 27.6046 164.715 26.7806C164.935 26.2862 166.008 23.1274 166.008 22.5506C166.008 22.4957 165.898 22.276 165.898 22.221C165.898 22.0562 166.035 22.0288 166.145 22.0288C166.448 22.0288 169.115 22.9901 169.115 23.4021C169.115 23.5669 168.455 23.9789 168.345 24.0888C167.878 24.6381 166.888 27.0827 166.888 27.2201C166.888 27.6046 167.355 27.6046 167.493 27.6046H174.203C175.44 27.6046 175.55 27.6046 175.963 27.1377C176.733 26.2312 176.815 26.1214 177.063 26.1214C177.228 26.1214 179.648 27.6046 179.648 27.9342C179.648 28.3462 179.098 28.3462 178.163 28.3462ZM177.255 36.2842H172.8C172.443 36.2842 171.92 36.2842 171.92 37.0533C171.92 38.0971 172.003 42.7116 172.003 43.6454C172.003 44.6068 172.03 44.7716 172.828 44.7716H174.285C175.523 44.7716 175.66 44.7716 176.045 44.3321C176.815 43.3982 176.898 43.3158 177.145 43.3158C177.338 43.3158 179.73 44.7716 179.73 45.1287C179.73 45.5132 179.18 45.5132 178.245 45.5132H168.675C166.283 45.5132 165.485 45.5682 165.21 45.5682C165.1 45.5956 164.715 45.6505 164.633 45.6505C164.523 45.6505 164.468 45.5681 164.385 45.4583L163.863 44.8265C163.808 44.7716 163.725 44.6892 163.725 44.6617C163.725 44.6068 163.78 44.5793 163.835 44.5793C164.028 44.5793 164.88 44.6892 165.045 44.6892C167.245 44.7716 168.043 44.7716 169.253 44.7716C169.638 44.7716 169.858 44.7441 169.995 44.4969C170.188 44.1673 170.188 41.7502 170.188 40.7339C170.188 40.1846 170.188 36.8336 170.05 36.6138C169.885 36.3392 169.638 36.2842 169.39 36.2842C168.428 36.2842 167.465 36.3117 166.53 36.3666C166.42 36.3666 165.76 36.4216 165.705 36.4216C165.595 36.4216 165.54 36.3666 165.458 36.2568L164.935 35.625C164.88 35.5426 164.798 35.4877 164.798 35.4328C164.798 35.4053 164.853 35.3778 164.908 35.3778C165.1 35.3778 165.98 35.4602 166.145 35.4877C166.503 35.4877 168.62 35.5701 169.143 35.5701C169.775 35.5701 170.105 35.5152 170.105 34.5538C170.105 33.7573 169.913 29.6097 169.913 29.5273C169.913 29.3625 169.94 29.2526 170.105 29.2526C170.188 29.2526 171.343 29.4449 172.415 29.747C172.608 29.802 172.8 29.8844 172.8 30.0766C172.8 30.1865 172.745 30.214 172.415 30.4063C172.003 30.6809 171.948 31.1479 171.948 31.8345V34.9658C172.003 35.5701 172.525 35.5701 172.8 35.5701H173.295C174.533 35.5701 174.67 35.5701 175.055 35.1031C175.825 34.1967 175.908 34.0869 176.155 34.0869C176.348 34.0869 178.74 35.5701 178.74 35.8997C178.74 36.2842 178.19 36.2842 177.255 36.2842Z" fill="#F8F8F5"/>
<path d="M165.348 61.4442H162.158C161.828 61.4442 160.205 61.5815 160.013 61.5815C159.903 61.5815 159.848 61.4991 159.765 61.3893L159.243 60.7575C159.133 60.6476 159.133 60.6202 159.133 60.5927C159.133 60.5378 159.16 60.5103 159.215 60.5103C159.683 60.5103 161.745 60.7026 162.158 60.7026C163.34 60.7026 163.478 60.7026 163.698 60.5927C163.945 60.4828 164.715 59.2743 164.99 59.2743C165.348 59.2743 166.805 60.5378 166.805 61.0322C166.805 61.4442 166.668 61.4442 165.348 61.4442ZM168.208 61.5541L167.658 60.9223C167.575 60.785 167.548 60.785 167.548 60.73C167.548 60.6751 167.575 60.6751 167.658 60.6751C167.85 60.6751 168.675 60.7575 168.868 60.7575C170.215 60.8124 171.343 60.8674 172.635 60.8674H177.283C178.025 60.8674 178.19 60.8674 178.41 60.5927C178.575 60.4004 179.208 59.3567 179.455 59.3567C179.675 59.3567 181.793 60.7026 181.793 61.1695C181.793 61.5815 181.298 61.5815 180.335 61.5815H176.32C176.073 61.5815 175.523 61.5815 175.44 62.1034C175.385 62.4605 175.385 68.7779 175.385 69.4371C175.385 70.5358 175.578 70.5358 176.76 70.5358C177.668 70.5358 177.943 70.5358 178.218 70.0414C178.74 69.135 178.795 69.0251 179.015 69.0251C179.4 69.0251 181.325 70.5358 181.325 70.9204C181.325 71.2775 181.16 71.2774 179.84 71.2774H176.265C175.963 71.2774 175.385 71.2775 175.385 72.0191C175.385 73.31 175.44 78.9133 175.44 80.0395C175.44 81.3304 175.44 81.5502 176.265 81.5502H176.953C178.08 81.5502 178.245 81.4952 178.41 81.3304C178.63 81.1107 179.455 79.7923 179.73 79.7923C179.895 79.7923 182.343 81.4952 182.343 81.8798C182.343 82.2643 181.82 82.2643 180.858 82.2643H171.563C169.143 82.2643 168.345 82.3193 168.098 82.3467C167.988 82.3467 167.603 82.4017 167.52 82.4017C167.41 82.4017 167.355 82.3467 167.273 82.2369L166.723 81.6051C166.64 81.4952 166.613 81.4678 166.613 81.4128C166.613 81.3579 166.64 81.3579 166.723 81.3579C166.805 81.3579 168.153 81.4678 168.373 81.4678C168.675 81.4678 168.978 81.3854 169.033 81.0283C169.088 80.6987 169.088 77.9245 169.088 77.3752C169.088 76.3589 169.033 71.9641 169.033 71.0577C169.033 70.1513 169.033 69.9316 168.978 69.547C168.95 69.4097 168.785 68.8329 168.785 68.6955C168.785 68.5582 168.95 68.5033 169.115 68.5033C169.39 68.5033 170.545 68.8329 170.6 68.8603C171.398 69.1075 171.508 69.1625 171.508 69.4646C171.508 69.7393 171.205 70.014 171.123 70.0964C170.765 70.426 170.765 70.6457 170.765 72.4585C170.765 73.777 170.738 79.6549 170.765 80.836C170.765 81.5227 171.095 81.5502 171.535 81.5502H172.745C173.543 81.5502 173.543 81.0008 173.543 80.5064C173.543 78.9957 173.598 72.4311 173.598 71.0852C173.598 69.8492 173.543 64.3557 173.543 63.2296C173.543 61.8562 173.543 61.5815 172.718 61.5815C171.673 61.5815 170.353 61.5815 169.253 61.6365C169.143 61.6365 168.51 61.7189 168.455 61.7189C168.345 61.7189 168.29 61.6639 168.208 61.5541ZM163.395 81.3854H161.91C161.14 81.3854 161.14 81.6875 161.14 82.539C161.14 83.7476 160.288 84.0772 159.958 84.0772C159.133 84.0772 159.133 83.3905 159.133 83.1433C159.133 82.7313 159.215 80.7262 159.215 80.2867C159.215 79.5176 159.215 76.5511 158.968 75.4525C158.94 75.2877 158.775 74.601 158.775 74.4911C158.775 74.3538 158.83 74.2714 159.023 74.2714C159.353 74.2714 160.095 74.6285 160.563 74.8482C161.195 75.1503 161.498 75.1503 161.883 75.1503H163.395C163.808 75.1503 164.11 75.1503 164.44 74.7383C164.715 74.3538 164.743 74.3263 164.935 74.3263C165.238 74.3263 165.348 74.3812 166.475 75.1229C166.86 75.3701 166.888 75.425 166.888 75.6447C166.888 75.8095 166.805 75.8919 166.393 76.2215C166.09 76.4688 166.035 76.5786 166.035 76.9632C166.035 77.6224 166.145 80.8086 166.145 81.1382C166.145 81.715 166.145 83.0609 164.798 83.0609C164.248 83.0609 164.248 82.7038 164.248 82.0446C164.248 81.4128 163.753 81.3854 163.395 81.3854ZM163.533 75.8645H161.745C160.865 75.8645 160.865 76.1941 160.865 77.0456C160.865 77.4301 160.865 80.067 161.003 80.3416C161.14 80.6712 161.58 80.6712 161.773 80.6712H163.478C164.33 80.6712 164.385 80.6712 164.385 77.128C164.385 76.1941 164.385 75.8645 163.533 75.8645ZM161.388 63.8613H164.193C165.293 63.8613 165.403 63.8613 165.733 63.3669C165.925 63.0648 166.338 62.5429 166.585 62.5429C166.915 62.5429 168.483 63.724 168.483 64.2458C168.483 64.6029 168.345 64.6029 167.025 64.6029H161.36C160.865 64.6029 159.105 64.6304 158.528 64.6853C158.445 64.6853 158.033 64.7403 157.95 64.7403C157.868 64.7403 157.813 64.6853 157.703 64.548L157.18 63.9162C157.07 63.8064 157.07 63.7789 157.07 63.7514C157.07 63.6965 157.098 63.6965 157.153 63.6965C157.318 63.6965 160.728 63.8613 161.388 63.8613ZM161.91 67.7342H162.488C163.615 67.7342 163.753 67.7342 164.165 67.1574C164.358 66.9102 164.66 66.4707 164.908 66.4707C165.238 66.4707 166.668 67.5968 166.668 68.0913C166.668 68.4483 166.53 68.4483 165.21 68.4483H161.883C161.58 68.4483 160.123 68.5857 159.875 68.5857C159.765 68.5857 159.71 68.5307 159.628 68.4209L159.078 67.7891C158.995 67.7067 158.968 67.6518 158.968 67.5968C158.968 67.5419 158.995 67.5419 159.078 67.5419C159.518 67.5419 161.498 67.7342 161.91 67.7342ZM161.993 71.5521H162.57C163.808 71.5521 163.945 71.5521 164.248 71.0302C164.44 70.7281 164.688 70.3436 164.963 70.3436C165.375 70.3436 166.585 71.4972 166.585 71.8817C166.585 72.2937 166.063 72.2937 165.1 72.2937H161.773C161.47 72.2937 159.958 72.4311 159.71 72.4311C159.6 72.4311 159.545 72.3487 159.463 72.2388L158.94 71.6071C158.83 71.4972 158.803 71.4697 158.803 71.4423C158.803 71.3873 158.858 71.3599 158.913 71.3599C159.408 71.3599 161.553 71.5521 161.993 71.5521Z" fill="#F8F8F5"/>
<path d="M193.244 48.5676H196.896C197.864 48.5676 198.128 48.4357 198.48 48.1281C199.404 47.2052 199.492 47.1173 199.756 47.1173C199.932 47.1173 202.968 48.8752 202.968 49.7102C202.968 49.9299 202.924 49.9739 202.44 50.3694C201.824 50.8968 201.736 50.9407 201.736 55.3794C201.736 57.2692 202 66.5861 202 68.6955C202 69.0032 202 70.0579 201.692 70.6732C201.296 71.4642 200.196 72.0795 199.536 72.0795C198.744 72.0795 198.7 71.684 198.568 70.7611C198.436 69.97 197.996 69.7503 197.248 69.7503H192.98C192.408 69.7503 191.968 69.8382 191.748 70.3216C191.616 70.5853 191.616 73.0463 191.616 73.2661C191.616 74.5406 190.12 75.4634 189.02 75.4634C188.316 75.4634 188.316 75.1119 188.316 74.8042C188.316 74.6284 188.404 73.7934 188.404 73.5737C188.624 68.3879 188.756 56.3902 188.756 55.3794C188.756 54.1928 188.756 50.8089 188.492 48.6555C188.448 48.3918 188.316 47.5568 188.316 47.337C188.316 47.1173 188.36 46.8976 188.58 46.8976C188.624 46.8976 191.528 48.172 191.704 48.2599C192.408 48.5676 192.584 48.5676 193.244 48.5676ZM192.936 58.6315H197.512C197.908 58.6315 198.832 58.6316 198.832 57.445C198.832 56.61 198.832 50.721 198.7 50.3694C198.48 49.7102 197.732 49.7102 197.424 49.7102H193.068C192.584 49.7102 191.836 49.7102 191.66 50.6331C191.616 51.0726 191.616 56.3902 191.616 57.3571C191.616 58.0163 191.748 58.6315 192.936 58.6315ZM192.892 68.6076H197.556C198.832 68.6076 198.832 67.9045 198.832 66.9376V61.0487C198.832 59.95 198.172 59.8181 197.556 59.8181H192.892C191.616 59.8181 191.616 60.2137 191.616 62.7187V67.3771C191.616 68.5197 192.408 68.6076 192.892 68.6076ZM218.148 67.7287H210.624C209.656 67.7287 209.612 67.9924 209.348 70.014C208.38 76.7819 206.444 79.4187 202.836 82.539C201.56 83.6377 200.196 84.3848 199.888 84.3848C199.8 84.3848 199.624 84.3848 199.624 84.209C199.624 84.1651 201.472 82.0995 201.824 81.66C206.312 76.0348 206.928 70.805 206.928 60.3894C206.928 53.9292 206.664 51.1165 206.488 49.2707C206.444 48.9631 206.136 47.6007 206.136 47.2931C206.136 47.2052 206.224 47.1612 206.312 47.1612C206.4 47.1612 208.776 47.9084 210.052 48.3039C210.492 48.4357 211.284 48.4797 211.372 48.4797H217.532C218.28 48.4797 218.676 48.4797 219.116 47.9523C219.6 47.381 220.084 46.8097 220.348 46.8097C220.744 46.8097 224 49.007 224 49.7542C224 50.1057 223.868 50.2376 222.856 51.0286C222.636 51.2044 222.504 51.3802 222.372 51.7757C222.196 52.391 222.196 56.0826 222.196 56.9615C222.196 58.1921 222.328 76.0348 222.46 78.2321C222.548 79.199 222.548 79.8142 222.548 80.034C222.548 83.5498 219.776 85.0001 218.72 85.0001C218.456 85.0001 218.456 84.8682 218.368 84.3408C218.148 83.2861 217.004 82.4951 216.3 82.1874C215.596 81.8798 214.936 81.6161 214.936 81.4843C214.936 81.0008 218.764 81.4403 219.116 80.869C219.468 80.3416 219.468 79.4187 219.468 78.7595C219.468 77.2213 219.424 70.3216 219.424 68.9153C219.424 68.6955 219.424 67.7287 218.148 67.7287ZM218.06 49.6663H211.108C210.008 49.6663 209.788 50.2376 209.788 50.9407V55.5552C209.788 56.4342 209.92 57.0055 211.196 57.0055H217.928C218.896 57.0055 219.336 56.7418 219.336 55.6871V51.1165C219.336 50.5452 219.336 49.6663 218.06 49.6663ZM218.016 58.1481H211.152C209.832 58.1481 209.832 58.8952 209.832 59.6423C209.832 60.4773 209.7 64.4766 209.7 65.3555C209.7 66.5861 210.58 66.5861 211.196 66.5861H218.06C218.632 66.5861 219.16 66.4542 219.336 65.7511V59.3787C219.336 58.1481 218.456 58.1481 218.016 58.1481Z" fill="#F8F8F5"/>
</g>
<defs>
<clipPath id="clip0_4_739">
<rect width="224" height="85" fill="white"/>
</clipPath>
</defs>
</svg>
